<?xml version="1.0"?>
<svg width="1024" height="1024" xmlns="http://www.w3.org/2000/svg" xmlns:svg="http://www.w3.org/2000/svg" xmlns:xlink="http://www.w3.org/1999/xlink">
 <!-- Created with SVG-edit - http://svg-edit.googlecode.com/ -->
 <title>js-logo</title>
 <defs>
  <symbol viewBox="0 0 522.468 522.469" id="svg_8" stroke="null" xmlns:xlink="http://www.w3.org/1999/xlink">
   <g id="svg_7" stroke="null">
    <g id="svg_11" stroke="null">
     <path d="m325.761993,70.513l-17.705994,-4.854004c-2.278992,-0.759987 -4.524017,-0.520996 -6.707001,0.715004c-2.190002,1.237 -3.669006,3.094002 -4.429016,5.568001l-106.493988,368.587967c-0.759979,2.475037 -0.521988,4.80899 0.715012,6.995087c1.237,2.189911 3.089996,3.6651 5.568008,4.42514l17.700989,4.85611c2.284012,0.76593 4.521011,0.52594 6.710022,-0.712128c2.189987,-1.242981 3.666,-3.093872 4.424988,-5.563812l106.496979,-368.594032c0.759003,-2.473999 0.52301,-4.808006 -0.716003,-6.999001c-1.237976,-2.189995 -3.088989,-3.664986 -5.563995,-4.423996l0,0l0,0l0,-0.000046l0,-0.000031l0,-0.000023l0,-0.000015l0,-0.000015l0,-0.000015l0,0.000031l0,-0.000031l0,-0.000038l0,-0.000031l0,-0.000031l0,-0.000031l0,-0.000031l0,-0.000031z" id="svg_12" stroke="null"/>
     <path d="m166.167007,142.464996c0,-2.473999 -0.953003,-4.664993 -2.856003,-6.567001l-14.276978,-14.276009c-1.903,-1.903 -4.093002,-2.856987 -6.567001,-2.856987s-4.665009,0.954994 -6.567001,2.856987l-133.044004,133.044029c-1.906,1.902985 -2.856,4.092987 -2.856,6.566986c0,2.473999 0.953,4.664001 2.856,6.56601l133.043013,133.044006c1.901993,1.906097 4.089005,2.854004 6.567001,2.854004s4.664993,-0.951019 6.567001,-2.854004l14.276978,-14.268005c1.903,-1.902008 2.856003,-4.093018 2.856003,-6.570007c0,-2.471008 -0.953003,-4.661011 -2.856003,-6.562988l-112.203003,-112.209015l112.20401,-112.200989c1.905991,-1.902008 2.856003,-4.092987 2.856003,-6.566986l0,-0.000031l-0.000015,0z" id="svg_13" stroke="null"/>
     <path d="m519.614014,254.662994l-133.047028,-133.043991c-1.902008,-1.902 -4.092987,-2.857002 -6.562988,-2.857002c-2.477997,0 -4.661011,0.955002 -6.570007,2.857002l-14.270996,14.274994c-1.902008,1.903 -2.851013,4.089996 -2.851013,6.566986s0.947998,4.665024 2.851013,6.567001l112.205994,112.20401l-112.205994,112.209961c-1.902008,1.902039 -2.851013,4.093018 -2.851013,6.563019c0,2.477997 0.947998,4.667999 2.851013,6.570007l14.270996,14.268005c1.908997,1.906006 4.093018,2.854004 6.570007,2.854004c2.471008,0 4.661011,-0.951019 6.562988,-2.854004l133.047028,-133.042999c1.903015,-1.902008 2.854004,-4.096008 2.854004,-6.570007c0,-2.474976 -0.950989,-4.664978 -2.854004,-6.566986l0,0.000031l0,-0.000031z" id="svg_14" stroke="null"/>
    </g>
   </g>
   <g id="svg_15" stroke="null"/>
   <g id="svg_16" stroke="null"/>
   <g id="svg_17" stroke="null"/>
   <g id="svg_18" stroke="null"/>
   <g id="svg_19" stroke="null"/>
   <g id="svg_20" stroke="null"/>
   <g id="svg_21" stroke="null"/>
   <g id="svg_22" stroke="null"/>
   <g id="svg_23" stroke="null"/>
   <g id="svg_24" stroke="null"/>
   <g id="svg_25" stroke="null"/>
   <g id="svg_26" stroke="null"/>
   <g id="svg_27" stroke="null"/>
   <g id="svg_28" stroke="null"/>
   <g id="svg_29" stroke="null"/>
  </symbol>
  <symbol id="svg_31" viewBox="0 0 548.176 548.175" xmlns:xlink="http://www.w3.org/1999/xlink">
   <g id="svg_30">
    <g id="svg_33">
     <path id="svg_34" d="m118.774002,383.721985l310.631943,0c12.56192,0 23.31192,-4.470001 32.25708,-13.421997c8.949158,-8.949005 13.42215,-19.697998 13.42215,-32.257996l0,-200.995987c0,-12.563004 -4.472992,-23.313004 -13.42215,-32.261002c-8.94516,-8.946991 -19.69397,-13.418015 -32.25708,-13.418015l-310.631943,0c-12.561989,0 -23.318001,4.471024 -32.264,13.418015c-8.946999,8.946999 -13.417999,19.697998 -13.417999,32.261002l0,200.996994c0,12.559998 4.471001,23.312012 13.417999,32.257996c8.945999,8.945007 19.701996,13.42099 32.264,13.42099zm-9.139999,-246.67598c0,-2.473999 0.904999,-4.618988 2.712997,-6.422989c1.810997,-1.806 3.953003,-2.712006 6.427002,-2.712006l310.624863,0c2.47821,0 4.61911,0.903992 6.42691,2.712006c1.80307,1.809021 2.70694,3.94902 2.70694,6.422989l0,200.996994c0,2.471008 -0.90387,4.617004 -2.70694,6.420013c-1.8078,1.807983 -3.9487,2.713989 -6.42691,2.713989l-310.628181,0c-2.475006,0 -4.617004,-0.903015 -6.426994,-2.713989c-1.804993,-1.810028 -2.710007,-3.949005 -2.710007,-6.420013l0,-200.996994l0.000015,0l0.000031,0l0.000031,0l0.000031,0l0.000031,0l0.000038,0l-0.000038,0l0.000038,0l-0.000038,0l0.000031,0l0.000031,0l0.000031,0l0.000031,0l0.000031,0l0.000031,0z"/>
     <path id="svg_35" d="m502.496002,401.997009l-456.815002,0l-45.681,0l0,27.403992c0,7.618011 4.471,14.085999 13.417,19.414001c8.951,5.328003 19.702,7.994019 32.264,7.994019l456.815002,0c12.560028,0 23.311981,-2.666016 32.258026,-7.994019s13.421997,-11.79599 13.421997,-19.414001l0,-27.403992l-45.680023,0zm-205.567993,27.403992l-45.681,0c-3.042007,0 -4.565002,-1.526001 -4.565002,-4.567993c0,-3.046021 1.522995,-4.575012 4.565002,-4.575012l45.681,0c3.045013,0 4.571014,1.528992 4.571014,4.575012c-0.000031,3.041992 -1.526031,4.567993 -4.571014,4.567993z"/>
    </g>
   </g>
   <g id="svg_36"/>
   <g id="svg_37"/>
   <g id="svg_38"/>
   <g id="svg_39"/>
   <g id="svg_40"/>
   <g id="svg_41"/>
   <g id="svg_42"/>
   <g id="svg_43"/>
   <g id="svg_44"/>
   <g id="svg_45"/>
   <g id="svg_46"/>
   <g id="svg_47"/>
   <g id="svg_48"/>
   <g id="svg_49"/>
   <g id="svg_50"/>
  </symbol>
  <symbol id="svg_3" preserveAspectRatio="xMidYMid meet" viewBox="0 0 617.000000 617.000000">
   <metadata>Created by potrace 1.12, written by Peter Selinger 2001-2015</metadata>
   <g transform="translate(0,617) scale(0.10000000149011612,-0.10000000149011612) " id="svg_5">
    <path d="m5248,5561c-32,-20 -53,-44 -72,-82c-14,-29 -26,-59 -26,-66c0,-7 -96,-108 -213,-225c-195,-195 -536,-559 -1001,-1070l-179,-197l-42,24c-52,31 -101,32 -165,4l-49,-21l-30,21c-17,12 -39,35 -51,51c-11,16 -50,52 -87,82c-67,53 -68,53 -133,52c-50,-1 -79,-8 -120,-29c-64,-32 -176,-140 -186,-179c-5,-22 -11,-26 -44,-26c-124,0 -296,-106 -346,-215c-13,-27 -24,-58 -24,-67c0,-12 -29,-32 -90,-63c-64,-32 -112,-66 -165,-117c-95,-89 -177,-218 -179,-280c-1,-9 -20,-29 -43,-45c-23,-15 -83,-63 -132,-106l-91,-79l0,-81c1,-105 33,-375 48,-404c11,-19 9,-24 -10,-37c-13,-7 -124,-76 -248,-151c-124,-76 -252,-154 -285,-175c-33,-21 -235,-143 -450,-270c-682,-407 -635,-377 -635,-416c0,-64 73,-167 127,-180c17,-5 70,23 210,109c104,63 319,193 478,289c160,96 432,262 605,368c173,106 318,194 323,197c4,2 20,-24 36,-58c17,-34 40,-72 52,-85l23,-24l-26,-28c-14,-15 -186,-211 -383,-437c-198,-225 -416,-473 -485,-550c-70,-77 -132,-149 -138,-161c-26,-48 90,-166 166,-168c36,-1 43,7 505,529c258,292 484,548 504,570l35,40l110,-115c60,-63 155,-173 211,-244c56,-71 129,-163 163,-206c49,-62 182,-296 248,-437c14,-29 16,-28 76,2l50,25l-34,63c-19,34 -68,126 -110,205c-63,119 -98,171 -213,310c-75,91 -163,206 -195,254c-31,48 -91,122 -133,165c-41,43 -75,82 -75,86c0,4 102,112 228,240l227,232l9,-50c4,-27 18,-90 30,-140l21,-90l45,-22c25,-12 47,-19 49,-17c2,2 -9,31 -24,65l-28,62l17,146c9,80 25,180 37,221c43,159 125,282 242,366c51,38 124,103 197,177c38,38 58,44 89,28c15,-9 92,-118 194,-278c27,-42 40,-49 71,-37c33,13 17,60 -64,183c-45,68 -79,126 -76,128c3,3 25,-4 49,-16c50,-24 68,-26 85,-9c36,36 1,71 -108,107c-63,22 -78,30 -68,39c29,23 58,102 87,235c17,76 31,140 31,143c0,2 -18,-6 -41,-18c-46,-26 -59,-50 -85,-164c-27,-118 -41,-137 -113,-153c-33,-7 -73,-11 -88,-8c-77,14 -238,69 -285,97c-48,29 -96,76 -86,85c2,2 51,9 108,15c134,13 186,37 218,100c12,24 22,56 22,71c0,21 11,33 63,64c148,90 213,125 245,131c60,12 119,-20 207,-111c102,-103 157,-189 194,-296c16,-46 43,-119 60,-162c46,-115 43,-151 -23,-262c-71,-121 -96,-202 -126,-425c-7,-47 -43,-196 -81,-333c-38,-136 -69,-250 -69,-253c0,-3 -53,-4 -117,-2c-90,3 -126,8 -152,22c-32,17 -41,17 -105,6c-88,-16 -96,-19 -96,-36c0,-19 27,-30 87,-37c28,-3 89,-17 135,-31c46,-14 112,-30 147,-35c35,-6 66,-12 68,-14c2,-3 12,-38 22,-78c9,-41 35,-108 58,-149c22,-41 71,-135 108,-208c76,-147 66,-141 159,-91l56,31l-29,51c-79,140 -221,422 -221,441c0,21 47,224 81,351c26,95 45,193 63,315c10,66 28,132 52,189c75,181 86,231 87,401c2,142 -1,162 -25,240c-14,47 -29,92 -33,101c-5,13 9,26 57,55c85,51 397,245 713,444c272,170 516,333 648,432c57,42 86,58 110,58c63,0 111,21 160,70c40,40 47,53 47,86c0,51 -21,81 -67,93c-75,21 -177,-25 -223,-102c-14,-22 -60,-51 -177,-112c-285,-148 -1076,-597 -1330,-756c-34,-21 -66,-39 -71,-39c-5,0 -19,11 -32,25c-20,21 -21,27 -9,42c8,10 167,194 354,408c543,622 700,809 860,1025c66,90 84,107 123,122c85,32 132,95 132,177c0,42 -4,53 -26,70c-39,31 -99,28 -156,-8zm-1963,-1556c41,-24 90,-76 129,-137l17,-26l-68,-41c-76,-45 -163,-71 -235,-71c-46,0 -48,1 -69,43c-12,23 -28,49 -35,58c-13,14 -11,23 13,69c42,79 107,125 186,129c10,1 38,-10 62,-24zm-388,-219c6,-6 20,-29 32,-50l20,-40l-27,-19c-40,-29 -79,-87 -87,-130c-14,-72 79,-193 191,-250c48,-24 159,-63 199,-69c25,-4 36,-56 19,-96c-28,-67 -143,-164 -210,-178c-26,-5 -35,0 -65,33c-19,21 -65,96 -102,165c-36,70 -111,190 -166,267c-90,127 -99,143 -92,169c14,46 30,72 80,125c74,80 167,113 208,73zm328,-153c-14,-59 -58,-81 -176,-90c-74,-6 -79,-5 -79,14c0,39 23,52 135,77c61,13 114,24 119,25c4,0 5,-11 1,-26zm-698,-192c12,-16 50,-62 85,-102c136,-157 308,-418 308,-467c0,-10 -16,-39 -35,-64c-29,-37 -47,-49 -101,-67c-35,-11 -71,-21 -78,-21c-15,0 -53,55 -132,189c-78,132 -148,210 -229,253c-39,21 -85,40 -102,44c-37,7 -39,13 -18,53c31,61 222,210 271,211c5,0 20,-13 31,-29zm-292,-362c72,-23 121,-58 171,-122c44,-56 184,-297 184,-315c0,-28 -48,-78 -114,-122c-63,-40 -69,-42 -127,-38c-69,5 -68,4 -199,166c-36,44 -81,89 -101,101l-37,21l-11,-32c-10,-29 -8,-35 30,-80c23,-27 40,-50 38,-52c-2,-1 -27,-19 -54,-38c-28,-20 -56,-38 -63,-40c-8,-2 -21,19 -32,52c-16,43 -20,81 -20,188l0,133l38,46c49,59 183,151 225,153c4,0 37,-9 72,-21zm128,-713c-10,-13 -65,-78 -123,-144l-105,-120l-42,41c-75,75 -72,80 69,169c108,67 129,77 171,77l49,1l-19,-24z" id="svg_6"/>
    <path d="m3103,1630l-108,-100l-80,0c-62,0 -85,-5 -103,-19l-24,-18l24,-26c23,-26 24,-26 125,-20l103,6l81,89c45,49 95,96 113,105c17,8 33,17 34,18c6,5 -41,65 -50,65c-4,0 -56,-45 -115,-100z" id="svg_10"/>
   </g>
  </symbol>
 </defs>
 <g>
  <title>canvas-bg</title>
  <rect fill="#494540" id="svg_1" height="1024" width="1024" ry="15" rx="15" y="0" x="0"/>
 </g>
 <g>
  <title>white-bg</title>
  <rect id="svg_2" height="896.00003" width="896.00003" y="64" x="64" stroke-width="0" fill="#f1f1f1" ry="40" rx="40"/>
 </g>
 <g>
  <title>joshua-sherer</title>
  <text font-weight="bold" fill="#454540" stroke-width="0" stroke-dasharray="null" stroke-linejoin="null" stroke-linecap="null" x="512" y="894" id="svg_52" font-size="85" font-family="Sans-serif" text-anchor="middle" xml:space="preserve">JOSHUA SHERER</text>
 </g>
 <g>
  <title>laptop</title>
  <use id="svg_32" xlink:href="#svg_31" transform="matrix(0.2625340832597936,0,0,0.2625340832597936,-11.597360291861861,45.95476099447241) " y="1898.09383" x="2578.58441" stroke="#494540" fill="#494540"/>
 </g>
 <g>
  <title>stickfist</title>
  <use x="493.157765" y="123.79551" transform="matrix(0.7473019567025116,0,0,0.7473019567025116,-240.04295186992994,-80.45007910395739) " xlink:href="#svg_3" id="svg_4" stroke="#494540" fill="#494540"/>
 </g>
 <g>
  <title>code</title>
  <use x="938.46166" y="197.52823" transform="matrix(0.3099707996908418,0,0,0.3099707996908418,-193.60083523682226,-10.035484076689587) " xlink:href="#svg_8" id="svg_9" stroke="#494540" fill="#494540"/>
 </g>
</svg>